<svg width="227" height="56" viewBox="0 0 227 56" fill="none" xmlns="http://www.w3.org/2000/svg">
<path d="M211.492 55.768C207.951 55.768 204.986 55.2773 202.596 54.296C200.207 53.272 198.372 51.9066 197.092 50.2C195.855 48.4506 195.151 46.4453 194.98 44.184L204.708 43.864C205.007 45.4853 205.69 46.744 206.756 47.64C207.823 48.536 209.402 48.984 211.492 48.984C213.199 48.984 214.522 48.7066 215.46 48.152C216.442 47.5973 216.932 46.744 216.932 45.592C216.932 44.8666 216.762 44.2693 216.42 43.8C216.079 43.288 215.396 42.8613 214.372 42.52C213.391 42.136 211.919 41.7946 209.956 41.496C206.33 40.856 203.492 40.1093 201.444 39.256C199.396 38.4026 197.946 37.2933 197.092 35.928C196.239 34.5626 195.812 32.8986 195.812 30.936C195.812 27.6506 197.071 25.0053 199.588 23C202.148 20.952 205.967 19.928 211.044 19.928C214.287 19.928 216.996 20.44 219.172 21.464C221.391 22.488 223.098 23.896 224.292 25.688C225.53 27.4373 226.298 29.4426 226.596 31.704L216.932 32.088C216.804 30.9786 216.463 30.04 215.908 29.272C215.396 28.4613 214.735 27.8426 213.924 27.416C213.114 26.9466 212.132 26.712 210.98 26.712C209.274 26.712 207.951 27.0746 207.012 27.8C206.116 28.4826 205.668 29.4 205.668 30.552C205.668 31.4053 205.86 32.1093 206.244 32.664C206.671 33.176 207.354 33.6026 208.292 33.944C209.231 34.2853 210.49 34.5626 212.068 34.776C215.738 35.288 218.639 36.0133 220.772 36.952C222.948 37.848 224.506 38.9786 225.444 40.344C226.383 41.7093 226.852 43.3946 226.852 45.4C226.852 47.6186 226.212 49.496 224.932 51.032C223.652 52.568 221.86 53.7413 219.556 54.552C217.295 55.3626 214.607 55.768 211.492 55.768Z" fill="white"/>
<path d="M173.051 55.768C169.509 55.768 166.736 54.6374 164.73 52.376C162.768 50.072 161.786 46.872 161.786 42.776V20.696H171.387V40.536C171.387 43.1814 171.792 45.1227 172.603 46.36C173.413 47.5547 174.693 48.152 176.443 48.152C178.405 48.152 179.92 47.4907 180.986 46.168C182.096 44.8027 182.65 42.776 182.65 40.088V20.696H192.251V55H183.482L183.227 45.144L184.443 45.4C183.931 48.8134 182.714 51.3947 180.794 53.144C178.874 54.8934 176.293 55.768 173.051 55.768Z" fill="white"/>
<path d="M150.757 54.9999C147.216 54.9999 144.613 54.1892 142.949 52.5679C141.285 50.9039 140.453 48.2799 140.453 44.6959V0.767998H150.053V43.5439C150.053 45.2079 150.394 46.3386 151.077 46.9359C151.802 47.5332 152.869 47.8319 154.277 47.8319H159.077V54.9999H150.757ZM89.949 17V8.832H159.077V17H89.949Z" fill="white"/>
<path d="M119.53 55.768C115.989 55.768 113.023 55.2773 110.634 54.296C108.245 53.272 106.41 51.9066 105.13 50.2C103.893 48.4506 103.189 46.4453 103.018 44.184L112.746 43.864C113.045 45.4853 113.727 46.744 114.794 47.64C115.861 48.536 117.439 48.984 119.53 48.984C121.237 48.984 122.559 48.7066 123.498 48.152C124.479 47.5973 124.97 46.744 124.97 45.592C124.97 44.8666 124.799 44.2693 124.458 43.8C124.117 43.288 123.434 42.8613 122.41 42.52C121.429 42.136 119.957 41.7946 117.994 41.496C114.367 40.856 111.53 40.1093 109.482 39.256C107.434 38.4026 105.983 37.2933 105.13 35.928C104.277 34.5626 103.85 32.8986 103.85 30.936C103.85 27.6506 105.109 25.0053 107.626 23C110.186 20.952 114.005 19.928 119.082 19.928C122.325 19.928 125.034 20.44 127.21 21.464C129.429 22.488 131.135 23.896 132.33 25.688C133.567 27.4373 134.335 29.4426 134.634 31.704L124.97 32.088C124.842 30.9786 124.501 30.04 123.946 29.272C123.434 28.4613 122.773 27.8426 121.962 27.416C121.151 26.9466 120.17 26.712 119.018 26.712C117.311 26.712 115.989 27.0746 115.05 27.8C114.154 28.4826 113.706 29.4 113.706 30.552C113.706 31.4053 113.898 32.1093 114.282 32.664C114.709 33.176 115.391 33.6026 116.33 33.944C117.269 34.2853 118.527 34.5626 120.106 34.776C123.775 35.288 126.677 36.0133 128.81 36.952C130.986 37.848 132.543 38.9786 133.482 40.344C134.421 41.7093 134.89 43.3946 134.89 45.4C134.89 47.6186 134.25 49.496 132.97 51.032C131.69 52.568 129.898 53.7413 127.594 54.552C125.333 55.3626 122.645 55.768 119.53 55.768Z" fill="white"/>
<path d="M90.699 55V20.696H100.299V55H90.699ZM90.507 16.472V8.79199H100.427V16.472H90.507Z" fill="white"/>
<path d="M70.5135 55.768C67.0148 55.768 63.9641 55.0426 61.3615 53.592C58.7588 52.0986 56.7321 50.008 55.2815 47.32C53.8308 44.632 53.1055 41.4746 53.1055 37.848C53.1055 34.2213 53.8308 31.0853 55.2815 28.44C56.7321 25.752 58.7588 23.6613 61.3615 22.168C63.9641 20.6746 67.0148 19.928 70.5135 19.928C74.0121 19.928 77.0628 20.6746 79.6655 22.168C82.2681 23.6613 84.2948 25.752 85.7455 28.44C87.1961 31.0853 87.9215 34.2213 87.9215 37.848C87.9215 41.4746 87.1961 44.632 85.7455 47.32C84.2948 50.008 82.2681 52.0986 79.6655 53.592C77.0628 55.0426 74.0121 55.768 70.5135 55.768ZM70.5135 48.408C72.9028 48.408 74.7588 47.4906 76.0815 45.656C77.4041 43.7786 78.0655 41.176 78.0655 37.848C78.0655 34.52 77.4041 31.9386 76.0815 30.104C74.7588 28.2266 72.9028 27.288 70.5135 27.288C68.1241 27.288 66.2681 28.2266 64.9455 30.104C63.6228 31.9386 62.9615 34.52 62.9615 37.848C62.9615 41.176 63.6228 43.7786 64.9455 45.656C66.2681 47.4906 68.1241 48.408 70.5135 48.408Z" fill="white"/>
<path d="M0.736023 55.0001V9.56006H13.728L25.312 42.6481L36.832 9.56006H49.824V55.0001H40.096V25.5601L29.408 54.8721H21.088L10.464 25.5601V55.0001H0.736023Z" fill="white"/>
</svg>
