<svg width="275" height="96" viewBox="0 0 275 96" fill="none" xmlns="http://www.w3.org/2000/svg">
<circle cx="63.4964" cy="26.6078" r="4.60778" fill="#F4F4F5"/>
<circle cx="84.9994" cy="47.4963" r="4.60778" fill="#F4F4F5"/>
<circle cx="63.4964" cy="69.6138" r="4.60778" fill="#F4F4F5"/>
<circle cx="42.6078" cy="47.4963" r="4.60778" fill="#F4F4F5"/>
<line x1="63.5323" y1="70.264" x2="63.5323" y2="27.1862" stroke="url(#paint0_linear_2101_24)" stroke-width="3" stroke-linecap="round"/>
<line x1="42.8859" y1="46.9112" x2="62.9112" y2="26.3297" stroke="#F4F4F5" stroke-width="3" stroke-linecap="round"/>
<line x1="64.6961" y1="26.9149" x2="85.3065" y2="47.5253" stroke="#F4F4F5" stroke-width="3" stroke-linecap="round"/>
<line x1="63.721" y1="69.6443" x2="84.4156" y2="47.2718" stroke="#F4F4F5" stroke-width="3" stroke-linecap="round"/>
<line x1="43.1851" y1="47.5312" x2="83.4989" y2="47.5011" stroke="#F4F4F5" stroke-width="3" stroke-linecap="round"/>
<path d="M136.272 70.024C132.517 70.024 129.275 69.3627 126.544 68.04C123.813 66.7173 121.659 64.8827 120.08 62.536C118.544 60.1467 117.648 57.3733 117.392 54.216L125.84 53.704C126.096 55.6667 126.651 57.3307 127.504 58.696C128.4 60.0613 129.573 61.1067 131.024 61.832C132.517 62.5147 134.309 62.856 136.4 62.856C138.192 62.856 139.707 62.6427 140.944 62.216C142.224 61.7467 143.184 61.0853 143.824 60.232C144.507 59.336 144.848 58.248 144.848 56.968C144.848 55.816 144.571 54.792 144.016 53.896C143.461 52.9573 142.395 52.1253 140.816 51.4C139.237 50.632 136.891 49.8853 133.776 49.16C130.021 48.3067 127.013 47.3467 124.752 46.28C122.491 45.1707 120.848 43.8053 119.824 42.184C118.8 40.52 118.288 38.4507 118.288 35.976C118.288 33.3307 118.949 31.0053 120.272 29C121.595 26.952 123.472 25.3733 125.904 24.264C128.336 23.112 131.259 22.536 134.672 22.536C138.299 22.536 141.371 23.1973 143.888 24.52C146.405 25.8 148.389 27.5707 149.84 29.832C151.291 32.0933 152.187 34.696 152.528 37.64L144.144 38.024C143.931 36.36 143.419 34.9093 142.608 33.672C141.84 32.4347 140.773 31.4747 139.408 30.792C138.085 30.0667 136.464 29.704 134.544 29.704C132.155 29.704 130.256 30.2587 128.848 31.368C127.483 32.4347 126.8 33.864 126.8 35.656C126.8 36.8933 127.077 37.9173 127.632 38.728C128.229 39.5387 129.275 40.2427 130.768 40.84C132.261 41.3947 134.352 41.992 137.04 42.632C141.093 43.4853 144.315 44.5733 146.704 45.896C149.093 47.2187 150.8 48.7547 151.824 50.504C152.848 52.2533 153.36 54.2587 153.36 56.52C153.36 59.2933 152.656 61.704 151.248 63.752C149.84 65.7573 147.856 67.3147 145.296 68.424C142.736 69.4907 139.728 70.024 136.272 70.024ZM157.67 69V23.56H165.862V42.632H164.838C165.179 40.6693 165.862 39.0693 166.886 37.832C167.91 36.552 169.169 35.6133 170.662 35.016C172.155 34.376 173.798 34.056 175.59 34.056C178.107 34.056 180.219 34.6107 181.926 35.72C183.675 36.7867 184.977 38.3013 185.83 40.264C186.726 42.2267 187.174 44.488 187.174 47.048V69H178.982V49.032C178.982 46.2587 178.513 44.1893 177.574 42.824C176.635 41.416 175.163 40.712 173.158 40.712C170.939 40.712 169.169 41.4373 167.846 42.888C166.523 44.3387 165.862 46.4507 165.862 49.224V69H157.67ZM192.985 69V34.824H201.177V69H192.985ZM192.857 30.28V22.984H201.369V30.28H192.857ZM206.612 69V23.56H214.805V50.248L228.821 34.824H238.933L225.557 49.032L239.381 69H230.165L220.181 53.896L214.805 59.592V69H206.612ZM254.963 69.768C251.592 69.768 248.627 69.0427 246.067 67.592C243.55 66.0987 241.587 64.008 240.179 61.32C238.814 58.632 238.131 55.496 238.131 51.912C238.131 48.2853 238.814 45.1493 240.179 42.504C241.587 39.816 243.55 37.7467 246.067 36.296C248.627 34.8027 251.592 34.056 254.963 34.056C258.334 34.056 261.278 34.8027 263.795 36.296C266.312 37.7467 268.254 39.816 269.619 42.504C271.027 45.1493 271.731 48.2853 271.731 51.912C271.731 55.496 271.027 58.632 269.619 61.32C268.254 64.008 266.312 66.0987 263.795 67.592C261.278 69.0427 258.334 69.768 254.963 69.768ZM254.963 63.112C257.608 63.112 259.635 62.1307 261.043 60.168C262.494 58.2053 263.219 55.4533 263.219 51.912C263.219 48.4133 262.494 45.6827 261.043 43.72C259.635 41.7147 257.608 40.712 254.963 40.712C252.318 40.712 250.27 41.7147 248.819 43.72C247.368 45.6827 246.643 48.4133 246.643 51.912C246.643 55.4533 247.368 58.2053 248.819 60.168C250.27 62.1307 252.318 63.112 254.963 63.112Z" fill="#F4F4F5"/>
<defs>
<linearGradient id="paint0_linear_2101_24" x1="65.5323" y1="25.6862" x2="65.5323" y2="71.764" gradientUnits="userSpaceOnUse">
<stop stop-color="#F4F4F5"/>
<stop offset="0.144231" stop-color="#F4F4F5"/>
<stop offset="0.504808" stop-color="#737373"/>
<stop offset="0.831731" stop-color="#F4F4F5"/>
<stop offset="1" stop-color="#F4F4F5"/>
</linearGradient>
</defs>
</svg>
