<svg width="237" height="83" viewBox="0 0 237 83" fill="none" xmlns="http://www.w3.org/2000/svg">
<circle cx="25.4964" cy="21.6078" r="4.60778" fill="#F4F4F5"/>
<circle cx="46.9994" cy="42.4963" r="4.60778" fill="#F4F4F5"/>
<circle cx="25.4964" cy="64.6138" r="4.60778" fill="#F4F4F5"/>
<circle cx="4.60778" cy="42.4963" r="4.60778" fill="#F4F4F5"/>
<line x1="25.5323" y1="65.264" x2="25.5323" y2="22.1862" stroke="#F4F4F5" stroke-width="3" stroke-linecap="round"/>
<line x1="4.88592" y1="41.9112" x2="24.9112" y2="21.3297" stroke="#F4F4F5" stroke-width="3" stroke-linecap="round"/>
<line x1="26.6961" y1="21.9149" x2="47.3065" y2="42.5253" stroke="#F4F4F5" stroke-width="3" stroke-linecap="round"/>
<line x1="25.721" y1="64.6443" x2="46.4156" y2="42.2718" stroke="#F4F4F5" stroke-width="3" stroke-linecap="round"/>
<line x1="5.1851" y1="42.5312" x2="45.4989" y2="42.5011" stroke="#F4F4F5" stroke-width="3" stroke-linecap="round"/>
<path d="M98.272 65.024C94.5173 65.024 91.2747 64.3627 88.544 63.04C85.8133 61.7173 83.6587 59.8827 82.08 57.536C80.544 55.1467 79.648 52.3733 79.392 49.216L87.84 48.704C88.096 50.6667 88.6507 52.3307 89.504 53.696C90.4 55.0613 91.5733 56.1067 93.024 56.832C94.5173 57.5147 96.3093 57.856 98.4 57.856C100.192 57.856 101.707 57.6427 102.944 57.216C104.224 56.7467 105.184 56.0853 105.824 55.232C106.507 54.336 106.848 53.248 106.848 51.968C106.848 50.816 106.571 49.792 106.016 48.896C105.461 47.9573 104.395 47.1253 102.816 46.4C101.237 45.632 98.8907 44.8853 95.776 44.16C92.0213 43.3067 89.0133 42.3467 86.752 41.28C84.4907 40.1707 82.848 38.8053 81.824 37.184C80.8 35.52 80.288 33.4507 80.288 30.976C80.288 28.3307 80.9493 26.0053 82.272 24C83.5947 21.952 85.472 20.3733 87.904 19.264C90.336 18.112 93.2587 17.536 96.672 17.536C100.299 17.536 103.371 18.1973 105.888 19.52C108.405 20.8 110.389 22.5707 111.84 24.832C113.291 27.0933 114.187 29.696 114.528 32.64L106.144 33.024C105.931 31.36 105.419 29.9093 104.608 28.672C103.84 27.4347 102.773 26.4747 101.408 25.792C100.085 25.0667 98.464 24.704 96.544 24.704C94.1547 24.704 92.256 25.2587 90.848 26.368C89.4827 27.4347 88.8 28.864 88.8 30.656C88.8 31.8933 89.0773 32.9173 89.632 33.728C90.2293 34.5387 91.2747 35.2427 92.768 35.84C94.2613 36.3947 96.352 36.992 99.04 37.632C103.093 38.4853 106.315 39.5733 108.704 40.896C111.093 42.2187 112.8 43.7547 113.824 45.504C114.848 47.2533 115.36 49.2587 115.36 51.52C115.36 54.2933 114.656 56.704 113.248 58.752C111.84 60.7573 109.856 62.3147 107.296 63.424C104.736 64.4907 101.728 65.024 98.272 65.024ZM119.67 64V18.56H127.862V37.632H126.838C127.179 35.6693 127.862 34.0693 128.886 32.832C129.91 31.552 131.169 30.6133 132.662 30.016C134.155 29.376 135.798 29.056 137.59 29.056C140.107 29.056 142.219 29.6107 143.926 30.72C145.675 31.7867 146.977 33.3013 147.83 35.264C148.726 37.2267 149.174 39.488 149.174 42.048V64H140.982V44.032C140.982 41.2587 140.513 39.1893 139.574 37.824C138.635 36.416 137.163 35.712 135.158 35.712C132.939 35.712 131.169 36.4373 129.846 37.888C128.523 39.3387 127.862 41.4507 127.862 44.224V64H119.67ZM154.985 64V29.824H163.177V64H154.985ZM154.857 25.28V17.984H163.369V25.28H154.857ZM168.612 64V18.56H176.805V45.248L190.821 29.824H200.933L187.557 44.032L201.381 64H192.165L182.181 48.896L176.805 54.592V64H168.612ZM216.963 64.768C213.592 64.768 210.627 64.0427 208.067 62.592C205.55 61.0987 203.587 59.008 202.179 56.32C200.814 53.632 200.131 50.496 200.131 46.912C200.131 43.2853 200.814 40.1493 202.179 37.504C203.587 34.816 205.55 32.7467 208.067 31.296C210.627 29.8027 213.592 29.056 216.963 29.056C220.334 29.056 223.278 29.8027 225.795 31.296C228.312 32.7467 230.254 34.816 231.619 37.504C233.027 40.1493 233.731 43.2853 233.731 46.912C233.731 50.496 233.027 53.632 231.619 56.32C230.254 59.008 228.312 61.0987 225.795 62.592C223.278 64.0427 220.334 64.768 216.963 64.768ZM216.963 58.112C219.608 58.112 221.635 57.1307 223.043 55.168C224.494 53.2053 225.219 50.4533 225.219 46.912C225.219 43.4133 224.494 40.6827 223.043 38.72C221.635 36.7147 219.608 35.712 216.963 35.712C214.318 35.712 212.27 36.7147 210.819 38.72C209.368 40.6827 208.643 43.4133 208.643 46.912C208.643 50.4533 209.368 53.2053 210.819 55.168C212.27 57.1307 214.318 58.112 216.963 58.112Z" fill="#F4F4F5"/>
</svg>
